<svg width="35" height="48" viewBox="0 0 35 48" fill="none" xmlns="http://www.w3.org/2000/svg">
<path d="M11.7089 33.2522C11.2999 33.2522 10.9077 33.0897 10.6185 32.8005C10.3293 32.5113 10.1668 32.1191 10.1668 31.7101V26.9863L4.12033 23.9997L10.1668 21.0131V16.2893C10.1668 15.8804 10.3293 15.4881 10.6185 15.1989C10.9077 14.9097 11.2999 14.7473 11.7089 14.7473H28.9833V1.9276C28.9833 1.67446 28.9334 1.4238 28.8365 1.18994C28.7397 0.95607 28.5977 0.743574 28.4187 0.56458C28.2397 0.385586 28.0272 0.2436 27.7933 0.14673C27.5594 0.0498588 27.3088 0 27.0557 0H2.19273C1.6815 0 1.19121 0.203085 0.829717 0.56458C0.468222 0.926074 0.265137 1.41637 0.265137 1.9276V46.0696C0.265137 46.5808 0.468222 47.0711 0.829717 47.4326C1.19121 47.7941 1.6815 47.9971 2.19273 47.9971H27.0557C27.5669 47.9971 28.0572 47.7941 28.4187 47.4326C28.7802 47.0711 28.9833 46.5808 28.9833 46.0696V33.2522H11.7089Z" fill="#D1D5DA"/>
<path d="M7.13086 0H22.1179V1.9276C22.1179 2.43883 21.9148 2.92912 21.5533 3.29061C21.1918 3.65211 20.7016 3.8552 20.1903 3.8552H9.05846C8.54723 3.8552 8.05693 3.65211 7.69544 3.29061C7.33394 2.92912 7.13086 2.43883 7.13086 1.9276V0V0Z" fill="#777A90"/>
<path d="M12.6768 41.0578H16.5706C16.9796 41.0578 17.3718 41.2203 17.661 41.5095C17.9502 41.7987 18.1127 42.1909 18.1127 42.5999C18.1127 43.0089 17.9502 43.4011 17.661 43.6903C17.3718 43.9795 16.9796 44.1419 16.5706 44.1419H12.6768C12.2679 44.1419 11.8756 43.9795 11.5864 43.6903C11.2972 43.4011 11.1348 43.0089 11.1348 42.5999C11.1348 42.1909 11.2972 41.7987 11.5864 41.5095C11.8756 41.2203 12.2679 41.0578 12.6768 41.0578V41.0578Z" fill="#777A90"/>
<path d="M10.1668 16.2894V21.0131L4.12036 23.9998L10.1668 26.9864V31.7102C10.1668 32.1191 10.3293 32.5114 10.6185 32.8006C10.9077 33.0898 11.2999 33.2522 11.7089 33.2522H33.2255C33.6345 33.2522 34.0268 33.0898 34.316 32.8006C34.6052 32.5114 34.7676 32.1191 34.7676 31.7102V16.2894C34.7676 15.8804 34.6052 15.4882 34.316 15.199C34.0268 14.9098 33.6345 14.7473 33.2255 14.7473H11.7089C11.2999 14.7473 10.9077 14.9098 10.6185 15.199C10.3293 15.4882 10.1668 15.8804 10.1668 16.2894Z" fill="#009A44"/>
<path d="M15.5038 25.4817C15.3092 25.4817 15.1165 25.4433 14.9367 25.3689C14.7569 25.2944 14.5936 25.1852 14.456 25.0476C14.3184 24.91 14.2093 24.7466 14.1349 24.5668C14.0605 24.387 14.0222 24.1943 14.0222 23.9997C14.0222 23.8051 14.0605 23.6124 14.1349 23.4326C14.2093 23.2529 14.3184 23.0895 14.456 22.9519C14.5936 22.8142 14.7569 22.7051 14.9367 22.6306C15.1165 22.5561 15.3092 22.5178 15.5038 22.5178C15.8968 22.5178 16.2737 22.6739 16.5516 22.9518C16.8296 23.2298 16.9857 23.6067 16.9857 23.9997C16.9857 24.3928 16.8296 24.7697 16.5516 25.0476C16.2737 25.3255 15.8968 25.4817 15.5038 25.4817V25.4817Z" fill="#313647"/>
<path d="M22.4673 25.4816C22.0743 25.4816 21.6973 25.3255 21.4194 25.0476C21.1415 24.7697 20.9854 24.3927 20.9854 23.9997C20.9854 23.6067 21.1415 23.2297 21.4194 22.9518C21.6973 22.6739 22.0743 22.5178 22.4673 22.5178C22.8603 22.5178 23.2373 22.6739 23.5152 22.9518C23.7931 23.2297 23.9492 23.6067 23.9492 23.9997C23.9492 24.3927 23.7931 24.7697 23.5152 25.0476C23.2373 25.3255 22.8603 25.4816 22.4673 25.4816V25.4816Z" fill="#313647"/>
<path d="M29.4308 25.4816C29.2362 25.4816 29.0435 25.4433 28.8637 25.3688C28.6839 25.2944 28.5206 25.1852 28.383 25.0476C28.2454 24.91 28.1363 24.7466 28.0619 24.5668C27.9875 24.387 27.9492 24.1943 27.9492 23.9997C27.9492 23.8051 27.9875 23.6124 28.0619 23.4326C28.1363 23.2528 28.2454 23.0895 28.383 22.9518C28.5206 22.8142 28.6839 22.7051 28.8637 22.6306C29.0435 22.5561 29.2362 22.5178 29.4308 22.5178C29.8238 22.5178 30.2007 22.6739 30.4787 22.9518C30.7566 23.2297 30.9127 23.6067 30.9127 23.9997C30.9127 24.3927 30.7566 24.7697 30.4787 25.0476C30.2007 25.3255 29.8238 25.4816 29.4308 25.4816V25.4816Z" fill="#313647"/>
</svg>
