<svg width="44" height="44" viewBox="0 0 44 44" fill="none" xmlns="http://www.w3.org/2000/svg">
<path d="M8.3396 11.3909L11.4161 8.31873L21.1505 18.0669L18.074 21.139L8.3396 11.3909Z" fill="#D1D5DA"/>
<path d="M40.6423 15.2231C39.4938 16.3706 38.0371 17.1603 36.4488 17.4965C34.8605 17.8326 33.2087 17.7007 31.6939 17.1168L25.9423 22.8731L22.8673 25.9434L17.1157 31.695C17.6906 33.1834 17.8287 34.8051 17.5137 36.3693C17.1987 37.9336 16.4438 39.3754 15.3376 40.5254C14.2315 41.6754 12.82 42.4857 11.2692 42.8612C9.71837 43.2366 8.09258 43.1616 6.58291 42.645L11.4532 37.7747L10.3517 33.6497L6.22666 32.5481L1.35635 37.4184C0.839679 35.9087 0.764671 34.2829 1.14014 32.7321C1.51561 31.1813 2.32595 29.7698 3.47593 28.6637C4.62591 27.5575 6.06774 26.8026 7.63198 26.4876C9.19622 26.1726 10.8179 26.3107 12.3063 26.8856L18.0579 21.134L21.1329 18.0637L26.8845 12.3075C26.3096 10.819 26.1715 9.19734 26.4865 7.6331C26.8015 6.06886 27.5564 4.62703 28.6626 3.47705C29.7687 2.32707 31.1802 1.51673 32.731 1.14126C34.2818 0.765793 35.9076 0.840801 37.4173 1.35747L32.547 6.22778L33.6485 10.3528L37.7735 11.4543L42.6439 6.58403C43.1519 8.06707 43.2336 9.66291 42.8798 11.1901C42.526 12.7173 41.7508 14.1146 40.6423 15.2231V15.2231Z" fill="#009A44"/>
<path d="M9.86219 5.15388L5.14984 9.86622L0.90625 3.59669L3.59266 0.910282L9.86219 5.15388Z" fill="#D1D5DA"/>
<path d="M11.396 8.32731L8.32287 11.4004L5.1499 9.86622L9.86224 5.15388L11.396 8.32731Z" fill="#777A90"/>
<path d="M29.9341 22.2229L28.2611 20.5481L20.5469 28.2651L22.2203 29.9381C22.4324 30.1476 22.7189 30.2645 23.0171 30.2629C23.3152 30.2613 23.6005 30.1414 23.8103 29.9296C23.9494 29.789 24.1147 29.6772 24.297 29.6005C24.4793 29.5238 24.6749 29.4838 24.8726 29.4827C25.0704 29.4816 25.2664 29.5195 25.4495 29.5941C25.6327 29.6688 25.7993 29.7788 25.9398 29.9179C26.0789 30.0585 26.1889 30.2251 26.2635 30.4082C26.3381 30.5913 26.376 30.7873 26.3748 30.985C26.3737 31.1827 26.3336 31.3783 26.2569 31.5605C26.1802 31.7427 26.0683 31.908 25.9277 32.047L25.1308 32.8467L33.918 41.6371C34.9318 42.6645 36.3065 43.2556 37.7496 43.2847C39.1926 43.3138 40.59 42.7785 41.6444 41.7928C42.1664 41.2953 42.5841 40.6988 42.873 40.0382C43.1618 39.3775 43.3162 38.6658 43.3269 37.9448C43.3376 37.2239 43.2046 36.5079 42.9355 35.8389C42.6664 35.17 42.2667 34.5613 41.7597 34.0485L32.8422 25.1311L32.0453 25.9307C31.7644 26.2146 31.3823 26.3753 30.983 26.3775C30.5836 26.3797 30.1998 26.2232 29.9158 25.9425C29.635 25.6585 29.4785 25.2746 29.4807 24.8753C29.4829 24.4759 29.6436 24.0938 29.9275 23.8129C30.139 23.6029 30.2586 23.3174 30.2598 23.0193C30.261 22.7212 30.1439 22.4347 29.9341 22.2229V22.2229Z" fill="#777A90"/>
<path d="M37.1875 38.0137C37.0798 38.0138 36.9731 37.9927 36.8736 37.9514C36.7741 37.9101 36.6837 37.8496 36.6077 37.7732L29.5867 30.7509C29.4329 30.5971 29.3464 30.3884 29.3464 30.1708C29.3464 29.9533 29.4329 29.7446 29.5867 29.5908C29.7406 29.4369 29.9492 29.3505 30.1668 29.3505C30.3844 29.3505 30.593 29.4369 30.7469 29.5908L37.7697 36.6136C37.8845 36.7284 37.9626 36.8748 37.9941 37.0341C38.0257 37.1933 38.0092 37.3584 37.9469 37.5084C37.8845 37.6583 37.7791 37.7864 37.6439 37.8763C37.5087 37.9663 37.3499 38.0141 37.1875 38.0137V38.0137Z" fill="#009A44"/>
</svg>
