<svg width="56" height="42" viewBox="0 0 56 42" fill="none" xmlns="http://www.w3.org/2000/svg">
<path d="M50.3076 9.15799H21.5923V19.1586H50.3076C51.6338 19.1586 52.9056 18.6318 53.8433 17.694C54.7811 16.7563 55.3079 15.4845 55.3079 14.1583C55.3079 12.8321 54.7811 11.5603 53.8433 10.6225C52.9056 9.6848 51.6338 9.15799 50.3076 9.15799V9.15799Z" fill="#F5F6FA"/>
<path d="M13.7732 0.340935C11.4223 0.340935 9.16773 1.27482 7.5054 2.93716C5.84307 4.59949 4.90918 6.85409 4.90918 9.20499V35.5021H22.6378V9.20499C22.6376 6.85405 21.7036 4.59944 20.0412 2.93713C18.3788 1.27481 16.1242 0.340935 13.7732 0.340935V0.340935Z" fill="#D1D5DA"/>
<path d="M24.547 34.161H3.00019C2.20449 34.161 1.44138 34.4771 0.878734 35.0398C0.31609 35.6024 0 36.3655 0 37.1612V41.6615H27.5472V37.1612C27.5472 36.3655 27.2311 35.6024 26.6685 35.0398C26.1058 34.4771 25.3427 34.161 24.547 34.161V34.161Z" fill="#777A90"/>
<path d="M24.261 19.1586H32.0965L35.1067 9.158H27.2712L24.261 19.1586Z" fill="#009A44"/>
<path d="M38.1721 19.1586H46.0076L49.0128 9.158H41.1823L38.1721 19.1586Z" fill="#009A44"/>
<path d="M15.7736 11.3171H11.7733C10.3926 11.3171 9.27319 12.4365 9.27319 13.8173V24.4999C9.27319 25.8807 10.3926 27.0001 11.7733 27.0001H15.7736C17.1544 27.0001 18.2738 25.8807 18.2738 24.4999V13.8173C18.2738 12.4365 17.1544 11.3171 15.7736 11.3171Z" fill="white"/>
</svg>
