<svg width="50" height="50" viewBox="0 0 50 50" fill="none" xmlns="http://www.w3.org/2000/svg">
<g clip-path="url(#clip0_818_21178)">
<path d="M16.4134 9.31268C16.4134 9.31268 20.0264 4.81352 26.2003 6.38753C35.4335 8.72765 33.4678 16.1519 30.1594 19.3139C23.2933 25.8606 31.9313 31.2513 31.0038 38.0487C29.6334 48.1475 20.9538 48.7603 17.3408 48.3982C12.8419 47.9385 0.770866 45.278 1.15847 34.1764C1.31074 29.9001 7.06939 25.4706 8.43984 19.0492C9.27042 15.1212 10.4194 9.41018 16.4134 9.31268Z" fill="#20120C"/>
<path d="M19.2374 20.3726C19.2374 20.3726 19.5835 14.0626 24.7469 13.4637C28.6645 13.0179 30.0626 17.4753 30.1457 22.4481C30.2426 27.4347 28.7752 30.6942 25.4114 29.942C21.8676 29.162 19.7635 27.4904 18.9329 24.816C18.9329 24.816 16.2058 24.5374 16.4273 21.5844C16.6765 18.325 19.2374 20.3726 19.2374 20.3726Z" fill="#E5AF9C"/>
<path d="M28.0969 35.416C28.0969 35.416 23.9994 34.6638 24.65 29.3429L19.1821 24.1194C19.1821 24.1194 18.9744 33.9117 15.2645 34.831C15.2645 34.831 17.3548 44.3586 22.975 44.6233C26.3804 44.7765 27.7924 37.9651 28.0969 35.416Z" fill="#E5AF9C"/>
<path d="M26.8095 20.3447C26.8095 20.3447 27.4878 22.0162 28.1522 22.5873C28.8029 23.1584 27.5155 23.6599 26.9894 23.7156C26.4496 23.7574 26.8095 20.3447 26.8095 20.3447Z" fill="#D39784"/>
<path d="M24.6224 29.747C24.6224 29.747 22.2137 28.6744 21.3416 27.7411C20.4695 26.8079 21.3416 29.9559 21.7015 30.6106C22.3521 31.7667 23.6672 32.7975 25.093 32.9646C25.0792 32.9646 24.4009 31.5995 24.6224 29.747Z" fill="#D39784"/>
<path d="M28.0969 35.4161C28.0969 35.4161 25.619 43.0493 23.6671 43.0633C22.3659 43.0772 17.3132 36.809 15.2506 34.8311C15.2506 34.8311 -2.01148 36.5722 -11.4247 53.3848C-11.4247 53.3848 15.5413 83.3746 46.1204 57.2154C46.1204 57.2154 42.7012 41.6982 28.0969 35.4161Z" fill="#C5E3FF"/>
<path d="M29.0243 20.8183C28.6803 20.8183 28.4014 20.5377 28.4014 20.1915C28.4014 19.8453 28.6803 19.5647 29.0243 19.5647C29.3683 19.5647 29.6472 19.8453 29.6472 20.1915C29.6472 20.5377 29.3683 20.8183 29.0243 20.8183Z" fill="#20120C"/>
<path d="M23.1277 20.2322C23.0732 19.8904 23.3044 19.5689 23.6441 19.514C23.9838 19.4592 24.3034 19.6918 24.3579 20.0337C24.4124 20.3755 24.1812 20.697 23.8415 20.7519C23.5018 20.8067 23.1822 20.5741 23.1277 20.2322Z" fill="#20120C"/>
<path d="M22.5597 17.2663C23.0165 17.2245 23.4733 17.2245 23.9302 17.2523C24.2624 17.2802 24.4977 17.6563 24.4424 17.9766C24.387 18.3388 24.0686 18.5199 23.7225 18.492C23.3764 18.4642 23.0304 18.4781 22.6843 18.5199C21.8953 18.5895 21.7707 17.3498 22.5597 17.2663Z" fill="#20120C"/>
<path d="M28.6367 17.1408C28.9828 17.1129 29.3427 17.1547 29.675 17.2244C29.9933 17.294 30.2287 17.6562 30.1318 17.9766C30.0349 18.3109 29.7165 18.5059 29.3843 18.4362C29.3289 18.4223 29.2597 18.4084 29.2043 18.3944C29.1766 18.3944 29.1489 18.3805 29.1212 18.3805C29.1212 18.3805 29.1074 18.3805 29.0935 18.3805C28.9551 18.3805 28.8167 18.3805 28.6783 18.3805C28.3599 18.3944 28.0276 18.1019 28.0276 17.7816C28.0415 17.4473 28.2907 17.1687 28.6367 17.1408Z" fill="#20120C"/>
<path d="M28.1384 25.3872L25.093 25.1782C25.093 25.1782 25.0515 26.3901 26.5188 26.4876C27.9169 26.5711 28.1384 25.3872 28.1384 25.3872Z" fill="white"/>
</g>
<defs>
<clipPath id="clip0_818_21178">
<rect width="67.9688" height="71.875" fill="white" transform="matrix(-1 0 0 1 53.125 -3.90625)"/>
</clipPath>
</defs>
</svg>
