<svg width="50" height="44" viewBox="0 0 50 44" fill="none" xmlns="http://www.w3.org/2000/svg">
<path d="M19.9578 4.44961C19.9578 4.44961 22.3732 -0.75976 28.9458 0.737016C38.7536 2.95283 36.1919 7.5899 33.3667 11.4639C27.4527 19.5494 29.6192 20.5913 25.7839 20.3565C21.0411 20.0777 20.3238 20.5033 17.0447 13.4449C15.1417 9.38016 13.634 4.71374 19.9578 4.44961Z" fill="#20120C"/>
<path d="M21.861 12.6672C21.861 12.6672 22.227 6.28391 27.4968 5.44747C31.6249 4.78713 33.2205 9.52692 33.4547 14.7656C33.6743 20.0044 32.2104 23.4822 28.6386 22.7778C24.8766 22.0441 22.4758 20.1951 21.5243 17.407C21.5243 17.407 18.7723 17.3336 18.9187 14.2227C19.0651 10.921 21.861 12.6672 21.861 12.6672Z" fill="#E5AF9C"/>
<path d="M31.6101 28.4861C31.6101 28.4861 28.3018 27.3709 28.8581 21.7359L21.0997 16.4092C21.0997 16.4092 21.9341 27.1508 18.0402 28.2073C18.0402 28.2073 20.4995 38.1858 26.4427 38.3179C30.0438 38.3912 31.3613 31.1715 31.6101 28.4861Z" fill="#E5AF9C"/>
<path d="M29.7363 12.1829C29.7363 12.1829 30.6293 14.3693 31.3319 14.9563C32.0346 15.5433 30.966 16.5558 29.5753 16.233C29.0191 16.1156 29.7363 12.1829 29.7363 12.1829Z" fill="#D39784"/>
<path d="M28.7995 22.8219C28.7995 22.8219 25.2277 21.7653 23.1197 20.0338C22.0804 19.1827 22.8123 21.6333 24.4372 23.4382C25.374 24.4801 27.8626 25.9328 29.3704 26.0649C29.3557 26.0649 28.8141 25.0524 28.7995 22.8219Z" fill="#D39784"/>
<path d="M31.6102 28.4861C31.6102 28.4861 29.4729 30.335 26.2378 30.3497C24.8618 30.3497 20.2361 30.247 18.0256 28.2073C18.0256 28.2073 -3.27337 30.4818 -9.68503 48.4578C-9.68503 48.4578 23.0613 76.2508 54.6951 47.8855C54.6951 47.9001 47.8589 31.3035 31.6102 28.4861Z" fill="#477849"/>
<path d="M31.537 12.4324C31.5516 12.7993 31.8444 13.0781 32.2103 13.0634C32.5763 13.0487 32.8544 12.7552 32.8398 12.3884C32.8251 12.0215 32.5324 11.7427 32.1664 11.7574C31.8151 11.7721 31.537 12.0656 31.537 12.4324Z" fill="#20120C"/>
<path d="M25.9452 12.5205C25.9598 12.8874 26.2526 13.1662 26.6185 13.1515C26.9845 13.1369 27.2626 12.8434 27.248 12.4765C27.2333 12.1097 26.9406 11.8309 26.5746 11.8455C26.2233 11.8602 25.9452 12.1684 25.9452 12.5205Z" fill="#20120C"/>
<path d="M25.2864 9.51223C25.7694 9.45353 26.2525 9.43886 26.7356 9.45353C27.0869 9.46821 27.3358 9.86441 27.2919 10.2019C27.2333 10.5835 26.9113 10.7742 26.5453 10.7595C26.1793 10.7449 25.8134 10.7742 25.4474 10.8182C24.613 10.921 24.4373 9.61495 25.2864 9.51223Z" fill="#20120C"/>
<path d="M31.6979 9.21876C32.0639 9.18941 32.4445 9.20409 32.7958 9.27746C33.1325 9.33616 33.396 9.71768 33.3081 10.0552C33.2203 10.4074 32.8836 10.6275 32.5323 10.5688C32.4737 10.5541 32.4006 10.5394 32.342 10.5394C32.3127 10.5394 32.2834 10.5394 32.2542 10.5248C32.2542 10.5248 32.2395 10.5248 32.2249 10.5248C32.0785 10.5248 31.9321 10.5248 31.7857 10.5394C31.4491 10.5688 31.0977 10.2753 31.0831 9.92312C31.0831 9.55627 31.3319 9.24811 31.6979 9.21876Z" fill="#20120C"/>
<path d="M31.3906 17.9207L28.1702 17.7739C28.1702 17.7739 28.1555 19.0506 29.7072 19.1093C31.1857 19.168 31.3906 17.9207 31.3906 17.9207Z" fill="white"/>
<path d="M21.8611 12.6672L21.9196 12.2269L24.496 12.5644C24.5985 11.3905 25.5646 10.4513 26.765 10.422C27.9214 10.3926 28.9022 11.2144 29.1071 12.315C29.5463 12.0655 29.9708 12.1389 30.2782 12.2856C30.4392 11.1851 31.3761 10.3193 32.5325 10.2899C33.8207 10.2606 34.8893 11.2878 34.9332 12.5791C34.9625 13.8558 33.9378 14.927 32.6496 14.9563C31.3907 14.9857 30.3514 14.0172 30.2635 12.7699C30.1025 12.6378 29.6487 12.3883 29.151 12.7992C29.1217 14.0465 28.1263 15.0591 26.8821 15.0884C25.6524 15.1178 24.6277 14.1933 24.496 12.99L21.8611 12.6672ZM32.635 14.5161C33.5572 14.4868 34.3038 13.8117 34.4502 12.946L33.2791 12.7845L33.2205 12.3296L34.4648 12.5057C34.4062 11.4932 33.5426 10.6861 32.5179 10.7155C31.4785 10.7448 30.6441 11.6106 30.6734 12.6672C30.7173 13.709 31.5957 14.5455 32.635 14.5161ZM26.8674 14.6629C27.9068 14.6335 28.7411 13.7677 28.7119 12.7112C28.6826 11.6546 27.8189 10.8329 26.765 10.8622C25.7256 10.8916 24.8912 11.7573 24.9205 12.8139C24.9498 13.8558 25.8281 14.6922 26.8674 14.6629Z" fill="white"/>
<path d="M31.6101 28.4861L28.2725 33.9449L25.6522 30.335L21.9633 34.1063L18.0256 28.2073C18.0256 28.2073 24.5251 32.7856 31.6101 28.4861Z" fill="white"/>
</svg>
