<svg width="50" height="43" viewBox="0 0 50 43" fill="none" xmlns="http://www.w3.org/2000/svg">
<path d="M29.4403 4.39839C29.4403 4.39839 26.3113 -0.950428 19.541 0.643228C12.2949 2.34679 13.9967 10.1502 15.369 12.0186C22.7432 22.1301 19.8703 18.8878 24.6462 18.4848C30.5564 17.9903 28.1045 18.5398 30.6845 14.6015C33.0816 10.9379 33.7769 4.85634 29.4403 4.39839Z" fill="#20120C"/>
<path d="M28.8547 12.8797C28.8547 12.8797 28.9279 5.93722 21.3159 4.92974C16.1375 4.23366 14.5273 9.0879 14.4175 15.6274C14.3077 22.1669 16.2473 26.4533 20.6937 25.4824C25.3781 24.4383 28.1594 22.2585 29.2573 18.7414C29.2573 18.7414 32.862 18.3751 32.5692 14.4917C32.2216 10.187 28.8547 12.8797 28.8547 12.8797Z" fill="#E5AF9C"/>
<path d="M18.3149 31.8936C18.3149 31.8936 20.3643 31.0143 20.3826 24.1634L29.9159 17.2576C29.9159 17.2576 30.1355 29.3657 32.6241 31.0143C32.6241 31.0143 31.3615 44.423 23.9325 44.771C19.4128 44.9725 18.7175 35.2274 18.3149 31.8936Z" fill="#E5AF9C"/>
<path d="M19.3397 12.4033C19.3397 12.4033 18.1503 15.0411 17.4184 16.0669C16.7414 17.0011 17.821 17.6239 19.541 17.1843C20.218 17.0194 19.3397 12.4033 19.3397 12.4033Z" fill="#D39784"/>
<path d="M18.315 31.8937C18.315 31.8937 22.0844 39.3124 23.3653 39.3674C24.5363 39.4223 29.733 34.6963 32.6058 31.0144C32.6058 31.0144 60.7849 34.0552 69.3667 56.2931C69.3667 56.2931 29.3121 92.013 -11.1084 57.612C-11.0901 57.6303 -1.90445 35.9236 18.315 31.8937Z" fill="#F8B001"/>
<path d="M15.8996 13.4657C16.3543 13.4657 16.723 13.0967 16.723 12.6414C16.723 12.1862 16.3543 11.8171 15.8996 11.8171C15.4448 11.8171 15.0762 12.1862 15.0762 12.6414C15.0762 13.0967 15.4448 13.4657 15.8996 13.4657Z" fill="#20120C"/>
<path d="M23.0907 13.4657C23.5455 13.4657 23.9142 13.0967 23.9142 12.6414C23.9142 12.1862 23.5455 11.8171 23.0907 11.8171C22.636 11.8171 22.2673 12.1862 22.2673 12.6414C22.2673 13.0967 22.636 13.4657 23.0907 13.4657Z" fill="#20120C"/>
<path d="M24.6461 9.39922C24.0422 9.30763 23.4384 9.271 22.8346 9.271C22.3954 9.271 22.066 9.76558 22.1026 10.1869C22.1575 10.6632 22.5601 10.9196 23.0175 10.9196C23.475 10.9196 23.9324 10.9562 24.3716 11.0295C25.4329 11.1761 25.7074 9.56408 24.6461 9.39922Z" fill="#20120C"/>
<path d="M15.9363 9.10602C15.7167 9.08771 15.4971 9.08771 15.2775 9.10602C15.0579 9.65556 14.9482 10.2417 14.8201 10.8279C14.8567 10.8279 14.8933 10.8279 14.9299 10.8096C15.003 10.7913 15.0945 10.773 15.1677 10.7546C15.2043 10.7546 15.2409 10.7363 15.2775 10.7363C15.2775 10.7363 15.2958 10.7363 15.3141 10.7363C15.4971 10.7363 15.6801 10.7363 15.8631 10.7363C16.2839 10.7546 16.7231 10.37 16.7231 9.94865C16.7231 9.50902 16.3937 9.14266 15.9363 9.10602Z" fill="#20120C"/>
<path d="M27.9763 8.15356C27.9763 8.15356 27.9763 16.2318 26.055 17.4041C24.1337 18.5948 14.454 17.7521 14.454 17.7521C14.454 17.7521 14.1063 22.8628 15.7531 24.5298C17.4183 26.1967 22.0843 26.9477 24.646 25.2075C27.2078 23.4673 29.1291 22.1301 29.3852 12.5132C29.3852 12.5315 29.8244 8.61151 27.9763 8.15356Z" fill="#20120C"/>
<path d="M17.1438 20.3715L21.1511 19.9502C21.1511 19.9502 21.2609 21.5438 19.3396 21.727C17.4732 21.9102 17.1438 20.3715 17.1438 20.3715Z" fill="white"/>
</svg>
