<svg width="37" height="28" viewBox="0 0 37 28" fill="none" xmlns="http://www.w3.org/2000/svg">
<path d="M33.5386 6.10449H14.395V12.7716H33.5386C34.4227 12.7716 35.2706 12.4204 35.8957 11.7952C36.5209 11.17 36.8721 10.3221 36.8721 9.43803C36.8721 8.55392 36.5209 7.70602 35.8957 7.08086C35.2706 6.4557 34.4227 6.10449 33.5386 6.10449Z" fill="#F5F6FA"/>
<path d="M9.18232 0.226562C7.61506 0.226563 6.11198 0.849155 5.00376 1.95738C3.89554 3.0656 3.27295 4.56867 3.27295 6.13593V23.6673H15.092V6.13593C15.0919 4.56864 14.4693 3.06557 13.361 1.95736C12.2527 0.849144 10.7496 0.226562 9.18232 0.226562Z" fill="#D1D5DA"/>
<path d="M16.3647 22.7732H2.00012C1.46966 22.7732 0.960919 22.9839 0.585823 23.359C0.210727 23.7341 0 24.2429 0 24.7733V27.7735H18.3648V24.7733C18.3648 24.2429 18.1541 23.7341 17.779 23.359C17.4039 22.9839 16.8951 22.7732 16.3647 22.7732Z" fill="#777A90"/>
<path d="M16.1738 12.7716H21.3975L23.4043 6.10449H18.1806L16.1738 12.7716Z" fill="#009A44"/>
<path d="M25.448 12.7716H30.6717L32.6751 6.10449H27.4548L25.448 12.7716Z" fill="#009A44"/>
<path d="M10.5157 7.54395H7.8489C6.92837 7.54395 6.18213 8.29018 6.18213 9.21072V16.3325C6.18213 17.253 6.92837 17.9993 7.8489 17.9993H10.5157C11.4363 17.9993 12.1825 17.253 12.1825 16.3325V9.21072C12.1825 8.29018 11.4363 7.54395 10.5157 7.54395Z" fill="white"/>
</svg>
