<svg width="28" height="36" viewBox="0 0 28 36" fill="none" xmlns="http://www.w3.org/2000/svg">
<path d="M13.9999 35.8125C30.9252 31.0528 28.2142 21.6772 26.1399 15.5728C23.9127 9.01781 26.9089 4.46031 26.9089 4.46031C17.4061 3.86656 13.9999 0.1875 13.9999 0.1875C13.9999 0.1875 10.5936 3.86656 1.09082 4.46031C1.09082 4.46031 4.08707 9.01781 1.85988 15.5728C-0.214492 21.6772 -2.92543 31.0528 13.9999 35.8125Z" fill="#F5F6FA"/>
<path d="M5.40137 7.10348C6.08939 10.2546 5.8876 13.5351 4.81856 16.5782C3.68387 19.9169 2.70418 23.4197 4.232 26.3219C5.59356 28.9063 8.87637 31.0019 13.9998 32.5572C19.1248 31.0019 22.4061 28.9063 23.7676 26.3219C25.2954 23.4197 24.3158 19.9157 23.1811 16.5782C22.1119 13.5351 21.9101 10.2546 22.5983 7.10348C18.502 6.39285 15.7282 5.13441 13.9998 4.0791C12.2714 5.13441 9.49762 6.39285 5.40137 7.10348Z" fill="#D1D5DA"/>
<path d="M13.9999 24.8811C17.6246 24.8811 20.563 21.9427 20.563 18.318C20.563 14.6933 17.6246 11.7549 13.9999 11.7549C10.3752 11.7549 7.43677 14.6933 7.43677 18.318C7.43677 21.9427 10.3752 24.8811 13.9999 24.8811Z" fill="#F5F6FA"/>
<path d="M18.093 16.5613L16.7099 15.1782L13.1949 18.6932L11.2899 16.7882L9.90674 18.1713L13.1933 21.4579L13.1949 21.4563L13.1964 21.4579L18.093 16.5613Z" fill="#009A44"/>
</svg>
