<svg width="71" height="29" viewBox="0 0 71 29" fill="none" xmlns="http://www.w3.org/2000/svg">
<path d="M11.0823 6.59335V9.67974H3.28759V18.9219H12.6549V0.413574H15.7782V18.9219L12.6549 22.0108H3.28759L0.163452 18.9219V9.67974L3.28759 6.59335H11.0823Z" fill="#262424"/>
<path d="M30.9881 6.59326L34.1125 9.67966V12.7663L30.9881 15.8558H23.1046V12.7663H30.9881V9.67966H21.6239V18.9218H32.541V22.0107H21.6239L18.4998 18.9218V9.67966L21.6239 6.59326H30.9881Z" fill="#262424"/>
<path d="M49.325 6.59326L52.4472 9.67966V18.9218L49.325 22.0108H41.5298V18.9218H49.325V9.67966H39.9582V28.1649H36.8333V9.67966L39.9582 6.59326H49.325Z" fill="#262424"/>
<path d="M70.7816 9.67966H58.2918V12.7663H67.6591L70.7813 15.8558V18.9218L67.6591 22.0107H55.1674V18.9218H67.6591V15.8558H58.2918L55.1674 12.7663V9.67966L58.2918 6.59326H70.7816V9.67966Z" fill="#262424"/>
</svg>
